<svg width="16" height="16" viewBox="0 0 16 16" fill="none" xmlns="http://www.w3.org/2000/svg">
<path d="M8.94 8.00012L13.14 3.80679C13.2655 3.68125 13.3361 3.51099 13.3361 3.33346C13.3361 3.15592 13.2655 2.98566 13.14 2.86012C13.0145 2.73459 12.8442 2.66406 12.6667 2.66406C12.4891 2.66406 12.3189 2.73459 12.1933 2.86012L8 7.06012L3.80667 2.86012C3.68113 2.73459 3.51087 2.66406 3.33334 2.66406C3.1558 2.66406 2.98554 2.73459 2.86 2.86012C2.73447 2.98566 2.66394 3.15592 2.66394 3.33346C2.66394 3.51099 2.73447 3.68125 2.86 3.80679L7.06 8.00012L2.86 12.1935C2.79752 12.2554 2.74792 12.3292 2.71408 12.4104C2.68023 12.4916 2.6628 12.5788 2.6628 12.6668C2.6628 12.7548 2.68023 12.8419 2.71408 12.9232C2.74792 13.0044 2.79752 13.0781 2.86 13.1401C2.92198 13.2026 2.99571 13.2522 3.07695 13.2861C3.15819 13.3199 3.24533 13.3373 3.33334 13.3373C3.42134 13.3373 3.50848 13.3199 3.58972 13.2861C3.67096 13.2522 3.74469 13.2026 3.80667 13.1401L8 8.94012L12.1933 13.1401C12.2553 13.2026 12.329 13.2522 12.4103 13.2861C12.4915 13.3199 12.5787 13.3373 12.6667 13.3373C12.7547 13.3373 12.8418 13.3199 12.9231 13.2861C13.0043 13.2522 13.078 13.2026 13.14 13.1401C13.2025 13.0781 13.2521 13.0044 13.2859 12.9232C13.3198 12.8419 13.3372 12.7548 13.3372 12.6668C13.3372 12.5788 13.3198 12.4916 13.2859 12.4104C13.2521 12.3292 13.2025 12.2554 13.14 12.1935L8.94 8.00012Z" fill="black"/>
</svg>
